<?xml version="1.0" standalone="no"?>
<!DOCTYPE svg PUBLIC "-//W3C//DTD SVG 20010904//EN"
 "http://www.w3.org/TR/2001/REC-SVG-20010904/DTD/svg10.dtd">
<svg version="1.0" xmlns="http://www.w3.org/2000/svg"
 width="499.000000pt" height="500.000000pt" viewBox="0 0 499.000000 500.000000"
 preserveAspectRatio="xMidYMid meet">

<g transform="translate(0.000000,500.000000) scale(0.100000,-0.100000)"
fill="#ff582a" stroke="none">
<path d="M1517 4429 c-60 -14 -112 -45 -151 -90 -20 -24 -36 -47 -36 -53 0 -6
-6 -22 -13 -36 -38 -73 -38 -66 -35 -1765 l3 -1650 26 -55 c33 -70 112 -150
181 -184 80 -39 150 -48 351 -44 164 3 188 6 241 27 75 30 148 101 184 179
l27 57 5 617 c3 339 9 620 13 624 4 4 135 9 290 9 247 1 294 4 382 23 329 70
540 172 710 346 75 77 150 175 157 207 2 8 8 18 15 24 18 15 90 183 108 251
37 145 44 209 41 374 -4 226 -35 374 -111 535 -83 174 -204 318 -347 414 -43
28 -78 49 -78 45 0 -4 -7 -1 -15 6 -63 52 -299 120 -490 140 -112 12 -1406 11
-1458 -1z m515 -976 c10 -9 18 -30 18 -46 0 -46 38 -117 69 -129 14 -5 54 -8
88 -6 85 5 109 28 118 111 8 72 18 87 55 87 37 0 54 -23 55 -74 3 -152 -89
-240 -250 -240 -76 0 -140 24 -176 67 -63 74 -91 203 -51 233 23 18 52 17 74
-3z m890 0 c10 -9 18 -29 18 -44 0 -54 30 -108 71 -129 100 -51 209 5 209 108
0 54 21 82 61 82 42 0 57 -29 52 -98 -6 -81 -49 -149 -121 -193 -50 -30 -64
-34 -127 -33 -83 0 -133 23 -188 83 -47 52 -67 101 -67 162 0 38 4 51 22 63
29 20 47 20 70 -1z m-482 -423 c11 -11 20 -26 20 -33 0 -20 51 -63 89 -76 50
-16 150 -13 190 7 20 10 50 40 70 70 44 65 80 70 110 15 26 -50 -74 -169 -172
-203 -68 -24 -119 -25 -201 -4 -81 20 -128 52 -171 116 -40 61 -43 76 -15 106
26 27 54 28 80 2z"/>
<path d="M578 2150 c-10 -6 -18 -20 -18 -31 0 -23 -27 -36 -43 -20 -6 6 -30
11 -53 11 -35 0 -47 -5 -69 -32 -25 -29 -27 -38 -22 -91 4 -43 12 -67 34 -95
27 -35 28 -42 29 -147 1 -167 42 -272 134 -345 83 -65 232 -90 343 -56 54 17
162 75 195 106 55 52 59 77 24 147 -36 69 -74 71 -205 9 -106 -51 -161 -46
-194 17 -19 36 -21 137 -4 202 5 22 15 58 20 80 24 94 8 169 -47 217 -35 31
-97 44 -124 28z"/>
<path d="M3265 1909 c-63 -56 -78 -112 -56 -214 39 -180 43 -243 17 -293 -30
-58 -85 -66 -176 -24 -158 73 -192 70 -230 -16 l-22 -47 22 -40 c24 -45 67
-78 162 -124 101 -48 220 -56 303 -21 11 4 36 14 55 21 54 20 122 95 148 162
30 79 45 180 37 250 -7 55 -5 61 26 105 27 38 34 58 37 107 4 56 2 62 -25 88
-32 30 -94 40 -115 19 -20 -20 -34 -14 -51 23 -15 31 -21 35 -56 35 -31 0 -49
-7 -76 -31z"/>
</g>
</svg>
